<svg version="1.1" id="Layer_1" xmlns="http://www.w3.org/2000/svg" xmlns:xlink="http://www.w3.org/1999/xlink" x="0px" y="0px"
	 width="100%" viewBox="0 0 100 100" enable-background="new 0 0 100 100" xml:space="preserve">
<path fill="#778f9b" opacity="1.000000" stroke="none" 
	d="
M68.912811,8.585785 
	C71.148819,6.490229 73.646454,6.007514 75.290375,8.041940 
	C77.027679,10.191934 76.079063,12.510910 74.005234,14.555450 
	C63.107552,25.299242 52.504181,36.348255 41.412159,46.884445 
	C37.749458,50.363605 38.274086,52.071903 41.600094,55.262547 
	C52.402103,65.624908 62.859020,76.347183 73.438454,86.941216 
	C75.371117,88.876549 78.142548,90.997040 75.441231,93.824059 
	C72.695061,96.697990 70.128166,94.669449 67.861397,92.392021 
	C55.774647,80.248466 43.636318,68.156265 31.543919,56.018326 
	C27.798883,52.259186 27.817928,49.721783 31.610456,45.919861 
	C43.945061,33.554695 56.309681,21.219473 68.912811,8.585785 
z"/>
</svg>
