<svg xmlns="http://www.w3.org/2000/svg" xmlns:xlink="http://www.w3.org/1999/xlink" viewBox="0 0 256 256" width="48px" height="48px" fill-rule="nonzero"><g fill="#778f9b" fill-rule="nonzero" stroke="none" stroke-width="1" stroke-linecap="butt" stroke-linejoin="miter" stroke-miterlimit="10" stroke-dasharray="" stroke-dashoffset="0" font-family="none" font-weight="none" font-size="none" text-anchor="none" style="mix-blend-mode: normal"><g transform="scale(5.33333,5.33333)"><path d="M24,4.01563c-7.71023,0.00223 -14,6.27131 -14,13.98438c0,3.99947 1.69141,7.6195 4.38867,10.16797c0.31724,0.29959 0.55026,0.72159 0.6582,1.20508l2.4668,11.10352c0.45554,2.05069 2.2919,3.52344 4.39258,3.52344h4.1875c2.10088,0 3.93674,-1.4729 4.39258,-3.52344l2.46875,-11.10352v-0.00195c0.10699,-0.48211 0.33861,-0.90175 0.65625,-1.20117v-0.00195h0.00195c2.69608,-2.54836 4.38672,-6.1685 4.38672,-10.16797c0,-7.71307 -6.28977,-13.98214 -14,-13.98437zM24,7.01563c6.09377,0.00177 11,4.89344 11,10.98438c0,3.15654 -1.32534,5.98073 -3.44922,7.98828c-0.79719,0.75231 -1.30057,1.72134 -1.52539,2.73438l-1.17187,5.27734h-9.70703l-1.17187,-5.2793c-0.22606,-1.01251 -0.72864,-1.98001 -1.52539,-2.73242c-2.12473,-2.00753 -3.44922,-4.83175 -3.44922,-7.98828c0,-6.09093 4.90623,-10.98261 11,-10.98437zM19.81445,37h8.37109l-0.62695,2.82617c-0.15416,0.69346 -0.75372,1.17383 -1.46484,1.17383h-4.1875c-0.71333,0 -1.31039,-0.47852 -1.46484,-1.17383z"></path></g></g></svg>
