<svg version="1.2" xmlns="http://www.w3.org/2000/svg" viewBox="0 0 100 100" width="48px" height="48px"><style>.a{opacity:.9;fill:#78909c}</style><path fill-rule="evenodd" class="a" d="m48.3 17.1c1.5-0.1 3.4 0.6 4.2 1.4 0.8 0.8 1.5 1.8 1.5 2.2 0 0.5-1.6 2.4-3.6 4.3-2 1.9-4.3 5-5 6.7-0.8 1.8-1.4 4.9-1.4 6.8 0 1.9 0.6 5 1.4 6.7 0.7 1.8 2.6 4.5 4.2 6 1.6 1.5 4.1 3.2 5.7 3.7 1.5 0.6 4.3 1.1 6.2 1.1 1.9 0 4.7-0.5 6.3-1.1 1.5-0.5 4.5-2.8 6.7-5 3.7-3.8 4.2-4 6.4-2.7 2.2 1.2 2.3 1.7 1.7 6.3-0.4 2.7-2 7.7-3.5 11-1.6 3.3-4.6 7.5-6.8 9.4-2.1 1.9-6.3 4.6-9.3 6-4.4 2.1-7 2.6-13 2.6-6 0-8.6-0.5-13-2.6-3-1.4-7.2-4.1-9.3-6-2.2-1.9-5.2-6.1-6.8-9.4-1.6-3.3-3.2-8.5-3.6-11.5-0.4-3.6 0-7.4 1-11 0.9-3 3.1-7.8 4.9-10.5 1.8-2.8 5.6-6.5 8.3-8.3 2.8-1.8 7-3.9 9.5-4.7 2.5-0.7 5.7-1.4 7.3-1.4zm-20.8 21c-2.4 4.4-2.9 6.6-2.9 11.9 0 4.3 0.7 7.7 1.8 10 1 1.9 2.8 4.8 4.1 6.5 1.2 1.7 4.6 4.3 7.6 5.9 4.4 2.4 6.7 2.9 11.9 3 5.3 0 7.5-0.5 11.9-2.9 3.1-1.7 6.7-4.7 8.3-7 1.5-2.2 2.7-4.1 2.6-4.2-0.2-0.2-1.9 0.2-3.8 0.8-1.9 0.7-6.2 1-9.6 0.8-4.5-0.3-7.3-1.2-10.9-3.4-3.1-1.9-6-4.9-7.9-7.9-2.3-3.7-3.2-6.5-3.5-11-0.2-3.4 0-7.6 0.5-9.5 0.6-1.9 0.9-3.6 0.9-3.8-0.1-0.2-1.9 1-4.1 2.5-2.1 1.6-5.2 5.3-6.9 8.3z"/></svg>
