<svg version="1.1" id="Layer_1" xmlns="http://www.w3.org/2000/svg" xmlns:xlink="http://www.w3.org/1999/xlink" x="0px" y="0px"
	 viewBox="0 0 100 100" width="48px" height="48px" xml:space="preserve">
<path fill="#778F9B" opacity="1.000000" stroke="none" 
	d="
M12.091227,7.000017 
	C39.049568,7.000069 65.518555,7.106674 91.984940,6.892745 
	C96.274498,6.858073 97.211594,8.139380 97.097000,12.185562 
	C96.804909,22.498198 96.886246,32.826611 97.068268,43.144295 
	C97.122467,46.216949 96.236809,47.078697 93.154373,47.066166 
	C65.022057,46.951786 36.888836,46.944763 8.756638,47.072987 
	C5.533154,47.087673 4.894598,45.980553 4.941276,43.055336 
	C5.097959,33.236336 4.946385,23.412889 5.017299,13.591900 
	C5.072783,5.907751 3.973079,7.151862 12.091227,7.000017 
z"/>
<path fill="#778F9B" opacity="1.000000" stroke="none" 
	d="
M45.634804,94.977341 
	C32.091633,89.483826 30.051952,82.203827 31.051708,70.008888 
	C31.628670,62.971184 40.551605,55.139908 47.694622,54.998653 
	C53.478004,54.884293 59.289936,54.631382 63.761242,58.967873 
	C65.437485,58.430470 64.858261,57.232334 65.016167,56.360794 
	C65.211037,55.285183 65.695503,54.290970 66.814766,54.569191 
	C67.593834,54.762844 68.942436,54.878487 68.944458,56.246887 
	C68.950119,60.075172 68.932236,63.903748 68.880913,67.731636 
	C68.870529,68.505363 68.283257,68.903900 67.557877,68.910294 
	C63.895924,68.942551 60.233639,68.944046 56.571476,68.942841 
	C55.207630,68.942390 55.014359,68.038254 55.025963,66.933907 
	C55.038052,65.783516 55.381428,65.004944 56.707161,65.021469 
	C58.198799,65.040070 59.690849,65.025749 61.323681,65.025749 
	C58.137383,59.838032 48.252983,58.118835 42.935089,61.621574 
	C37.296829,65.335327 34.401756,72.765076 36.228043,79.459129 
	C37.643440,84.647102 42.730347,89.808243 49.931934,90.385368 
	C56.435429,90.906548 62.359787,87.036568 65.185196,80.388916 
	C65.375618,79.940903 65.873947,79.534035 65.872749,79.109047 
	C65.865669,76.607811 66.045975,73.862740 69.487297,75.166618 
	C72.302681,76.233345 71.062904,78.964645 70.443871,81.047249 
	C67.712128,90.237625 61.232800,94.990585 51.560833,94.999611 
	C49.728760,95.001320 47.896679,94.995514 45.634804,94.977341 
z"/>
<path fill="#000000" opacity="1.000000" stroke="none" 
	d="
M18.055897,26.191410 
	C19.126844,23.715754 20.848015,23.588911 22.666027,24.383913 
	C24.111889,25.016180 24.126263,26.463322 23.922306,27.801071 
	C23.686638,29.346790 22.644270,29.941685 21.136620,29.976528 
	C18.782602,30.030937 17.889746,28.805696 18.055897,26.191410 
z"/>
<path fill="#000000" opacity="1.000000" stroke="none" 
	d="
M38.779922,24.778572 
	C41.560211,23.634169 43.711868,23.538317 43.955677,26.978783 
	C44.099792,29.012379 43.007034,30.087189 40.979767,29.947527 
	C37.531742,29.709984 37.632500,27.559807 38.779922,24.778572 
z"/>
<path fill="#000000" opacity="1.000000" stroke="none" 
	d="
M63.941910,27.806190 
	C62.873451,30.294344 61.136784,30.384892 59.329811,29.607475 
	C57.881527,28.984377 57.862812,27.535223 58.074940,26.194265 
	C58.318485,24.654720 59.356804,24.044203 60.862122,24.009605 
	C63.217297,23.955482 64.097954,25.201307 63.941910,27.806190 
z"/>
<path fill="#000000" opacity="1.000000" stroke="none" 
	d="
M78.285568,28.565424 
	C77.910637,26.328659 77.821281,24.462286 80.322220,24.060123 
	C81.683723,23.841188 83.061615,23.983927 83.679459,25.442051 
	C84.200378,26.671417 84.386482,28.106541 83.275780,29.104624 
	C81.705910,30.515329 80.024391,30.384626 78.285568,28.565424 
z"/>
</svg>
