<svg version="1.1" id="Layer_1" xmlns="http://www.w3.org/2000/svg" xmlns:xlink="http://www.w3.org/1999/xlink" x="0px" y="0px" width="100%" viewBox="0 0 100 100" enable-background="new 0 0 100 100" xml:space="preserve">
<path fill="#778F9B" opacity="1.000000" stroke="none" 
	d="
M40.004341,9.011587 
	C45.288330,11.209706 42.721130,14.088063 40.844078,17.382772 
	C46.001194,22.521389 51.187279,27.872347 56.631298,32.946568 
	C57.627548,33.875145 59.661308,33.764778 61.237022,33.983875 
	C66.410576,34.703239 71.764931,34.752251 76.734253,36.167137 
	C84.772095,38.455704 88.223656,46.265259 80.727295,52.837250 
	C76.873810,56.215576 73.328644,59.945595 69.297363,63.852798 
	C75.985779,70.520531 82.160172,76.779404 88.464310,82.904755 
	C90.695862,85.073029 92.523048,87.682831 90.095802,90.103012 
	C87.679619,92.512161 85.068352,90.711777 82.904602,88.462967 
	C76.810280,82.129074 70.577972,75.927963 63.878189,69.146271 
	C59.668930,73.527786 55.938236,77.523003 52.084591,81.395882 
	C46.514790,86.993492 40.333931,85.710785 36.868050,78.605370 
	C34.162270,73.058235 33.959423,67.266716 33.861938,61.295311 
	C33.826496,59.124043 32.698162,56.541752 31.226355,54.903572 
	C26.889498,50.076496 22.133429,45.625809 17.530558,41.038719 
	C17.305622,40.814556 16.977356,40.694080 16.768072,41.721199 
	C14.550606,41.991856 12.333138,42.262516 10.115671,42.533173 
	C10.136994,40.456985 9.403959,37.952473 10.300610,36.373295 
	C16.690538,25.119385 26.091248,16.733662 36.838467,9.766321 
	C37.602428,9.271052 38.672562,9.248055 40.004341,9.011587 
M37.487167,24.990664 
	C36.308739,23.911350 35.130310,22.832039 33.809986,21.622766 
	C29.304129,25.700924 25.142874,29.467188 21.031786,33.188049 
	C26.904154,39.528320 32.670292,45.477585 38.061230,51.749355 
	C39.600098,53.539658 40.758839,56.233791 40.863739,58.568645 
	C41.149586,64.930954 40.687801,71.341820 44.111008,76.095306 
	C54.929699,65.526108 65.768616,54.937149 76.624939,44.331184 
	C71.363960,41.659107 65.859512,39.911915 59.482227,41.679398 
	C57.710011,42.170570 54.872684,40.966862 53.297718,39.629528 
	C48.007431,35.137436 43.066311,30.234127 37.487167,24.990664 
z"/>
</svg>
