<svg xmlns="http://www.w3.org/2000/svg" xmlns:xlink="http://www.w3.org/1999/xlink" viewBox="0 0 100 100" x="0" y="0" width="100%" height="100%"><g><path style="opacity:0.954" fill="#768f9b" d="M 35.5,7.5 C 37.4672,7.26057 39.3005,7.59391 41,8.5C 41.54,11.4193 41.2067,14.0859 40,16.5C 45.1667,21.6667 50.3333,26.8333 55.5,32C 60.5,32.3333 65.5,32.6667 70.5,33C 74.8055,33.9032 78.6388,35.7365 82,38.5C 84,41.8333 84,45.1667 82,48.5C 77.3181,53.0148 72.8181,57.6815 68.5,62.5C 75.152,69.6523 81.9853,76.6523 89,83.5C 90.5,88.6667 88.6667,90.5 83.5,89C 76.6523,81.9853 69.6523,75.152 62.5,68.5C 57.6815,72.8181 53.0148,77.3181 48.5,82C 44.6338,84.1198 40.9671,83.7865 37.5,81C 33.1652,73.0984 31.3318,64.5984 32,55.5C 26.3333,49.8333 20.6667,44.1667 15,38.5C 13.4192,41.5534 11.0859,42.22 8,40.5C 7.33333,38.8333 7.33333,37.1667 8,35.5C 15.3604,24.307 24.5271,14.9737 35.5,7.5 Z M 31.5,20.5 C 38.6088,26.4358 45.6088,32.6025 52.5,39C 54,39.5 55.5,40 57,40.5C 63.6506,38.7006 69.8173,39.7006 75.5,43.5C 65.1667,54.5 54.5,65.1667 43.5,75.5C 41.5201,73.2052 40.3534,70.5385 40,67.5C 39.6667,62.5 39.3333,57.5 39,52.5C 32.8651,45.364 26.3651,38.5307 19.5,32C 23.3954,27.9353 27.3954,24.102 31.5,20.5 Z"/></g></svg>
